<?xml version="1.0" standalone="no"?>
<!DOCTYPE svg PUBLIC "-//W3C//DTD SVG 20010904//EN"
 "http://www.w3.org/TR/2001/REC-SVG-20010904/DTD/svg10.dtd">
<svg version="1.0" xmlns="http://www.w3.org/2000/svg"
 width="1200.000000pt" height="1200.000000pt" viewBox="0 0 1200.000000 1200.000000"
 preserveAspectRatio="xMidYMid meet">
<metadata>
Created by potrace 1.14, written by Peter Selinger 2001-2017
</metadata>
<g transform="translate(0.000000,1200.000000) scale(0.100000,-0.100000)"
fill="#000000" stroke="none">
<path d="M0 6000 l0 -6000 6000 0 6000 0 0 6000 0 6000 -6000 0 -6000 0 0
-6000z m4249 4244 c223 -30 451 -104 686 -224 112 -57 277 -159 289 -178 5 -8
-233 -456 -260 -491 -2 -2 -20 11 -41 29 -147 130 -448 268 -697 322 -138 29
-447 32 -576 5 -274 -59 -424 -203 -449 -432 -18 -159 24 -292 118 -377 119
-106 322 -182 797 -299 503 -123 818 -258 998 -428 182 -173 254 -345 263
-632 13 -380 -93 -638 -344 -840 -499 -400 -1548 -393 -2298 16 -110 59 -294
182 -301 199 -3 7 55 126 128 264 l133 250 40 -34 c207 -175 578 -350 869
-409 424 -86 821 -35 1002 128 125 113 167 310 103 482 -17 47 -37 75 -94 131
-126 124 -315 202 -865 353 -317 87 -490 146 -646 220 -322 154 -470 329 -520
614 -24 136 -15 368 20 502 48 184 134 335 270 471 301 301 807 433 1375 358z
m4162 -13 c422 -74 785 -305 1011 -642 52 -79 94 -156 88 -162 -12 -10 -460
-307 -464 -307 -2 0 -22 33 -44 73 -81 148 -205 275 -356 367 -193 117 -476
177 -718 152 -152 -15 -253 -43 -376 -104 -462 -227 -734 -741 -709 -1338 19
-451 221 -854 554 -1104 336 -252 803 -287 1198 -89 201 100 336 229 442 422
20 36 38 68 39 69 2 3 479 -263 494 -275 2 -2 -15 -43 -39 -90 -209 -408 -717
-716 -1295 -784 -140 -16 -394 -7 -529 20 -404 81 -781 328 -1051 688 -461
616 -553 1368 -250 2056 172 391 461 696 843 891 176 90 387 152 592 175 135
15 436 6 570 -18z m-2 -4637 c223 -30 451 -104 686 -224 112 -57 277 -159 289
-178 5 -8 -233 -456 -260 -491 -2 -2 -20 11 -41 29 -147 130 -448 268 -697
322 -138 29 -447 32 -576 5 -274 -59 -424 -203 -449 -432 -18 -159 24 -292
118 -377 119 -106 322 -182 797 -299 503 -123 818 -258 998 -428 182 -173 254
-345 263 -632 13 -380 -93 -638 -344 -840 -499 -400 -1548 -393 -2298 16 -110
59 -294 182 -301 199 -3 7 55 126 128 264 l133 250 40 -34 c207 -175 578 -350
869 -409 424 -86 821 -35 1002 128 125 113 167 310 103 482 -17 47 -37 75 -94
131 -126 124 -315 202 -865 353 -317 87 -490 146 -646 220 -322 154 -470 329
-520 614 -24 136 -15 368 20 502 48 184 134 335 270 471 301 301 807 433 1375
358z m-3948 -13 c422 -74 785 -305 1011 -642 52 -79 94 -156 88 -162 -12 -10
-460 -307 -464 -307 -2 0 -22 33 -44 73 -81 148 -205 275 -356 367 -193 117
-476 177 -718 152 -152 -15 -253 -43 -376 -104 -462 -227 -734 -741 -709
-1338 19 -451 221 -854 554 -1104 336 -252 803 -287 1198 -89 201 100 336 229
442 422 20 36 38 68 39 69 2 3 479 -263 494 -275 2 -2 -15 -43 -39 -90 -209
-408 -717 -716 -1295 -784 -140 -16 -394 -7 -529 20 -404 81 -781 328 -1051
688 -461 616 -553 1368 -250 2056 172 391 461 696 843 891 176 90 387 152 592
175 135 15 436 6 570 -18z"/>
</g>
</svg>
